<svg xmlns="http://www.w3.org/2000/svg" viewBox="0 0 52 65"><path d="M48.8 8C.8 21.7 2.2 20.5 2 21.7c-.2 1.2.7.9 9.6 7.2l3.2 14.3v.1c0 .1 0 .1.1.2l.1.1.1.1.1.1.1.1h.2c.1 0 .2.1.3.1.1 0 .2 0 .3-.1h.1c.1 0 .2-.1.2-.2l7-6.8c9.4 6.3 11 8.1 11.7 6.5C50.3 8.4 50 9.4 50 9c0-1.3-1.5-1-1.2-1zM5.4 22.2l35-9.8-27.8 14.7-7.2-4.9zM15.7 38L14 30.5c.1.1 2.9 1.9 2.7 1.8l-1 5.7zm-1.2-9.6l8.8-4.7 14.2-7.5-19.6 14.5c-.1-.1-3.6-2.5-3.4-2.3zm2.9 11.7l1.2-6.5c.1.1 3.5 2.3 3.3 2.2l-4.5 4.3zm16.5 1.4c-.9-.6-11.5-7.8-14.3-9.6l27-19.9-12.7 29.5z" fill="#fff"/></svg>