<svg xmlns="http://www.w3.org/2000/svg" viewBox="0 0 100 125"><path style="text-indent:0;text-transform:none;block-progression:tb" d="M33 14c0 .189.039.378.094.562l8.281 28.532-20.313.843-4.375-7A2.038 2.038 0 0015 36H8c-1.047 0-2 .972-2 2 0 .165.02.336.063.5L8.938 50 6.062 61.5A2.014 2.014 0 006 62c0 1.024.953 2 2 2h7c.671 0 1.33-.369 1.688-.937l4.375-7 20.312.843-8.281 28.532C32.747 86.62 33.767 87.992 35 88h9c.671 0 1.33-.369 1.688-.937l18.374-29L82.906 59H83c2.521 0 5.068-.945 7.156-2.469S94 52.771 94 50c0-2.772-1.756-5.007-3.844-6.531s-4.635-2.47-7.156-2.47h-.094l-18.844.938-18.374-29A2.038 2.038 0 0044 12h-9c-1.072 0-2 1.097-2 2zm4.656 2h5.25l18.407 29.062a2.041 2.041 0 001.78.938L83 45h.094c1.41.025 3.318.697 4.719 1.719C89.239 47.76 90 49.032 90 49.999c0 .968-.76 2.24-2.188 3.282-1.4 1.022-3.308 1.694-4.718 1.719H83l-19.906-1a2.041 2.041 0 00-1.782.938L42.907 84h-5.25l8.25-28.437c.34-1.154-.611-2.5-1.812-2.563l-24-1a2.042 2.042 0 00-1.782.938L13.907 60h-3.344l2.376-9.5a2.01 2.01 0 000-1L10.562 40h3.344l4.406 7.062a2.041 2.041 0 001.782.938l24-1c1.2-.064 2.152-1.409 1.812-2.563z" fill="#fff" overflow="visible" color="#000"/></svg>