<svg xmlns="http://www.w3.org/2000/svg" viewBox="0 0 100 125"><path style="text-indent:0;text-align:start;line-height:normal;text-transform:none;block-progression:tb;marker:none;-inkscape-font-specification:Sans" d="M50 5c-7.427 0-13.69 5.099-15.469 12H26a3 3 0 00-3 3v72a3 3 0 003 3h48a3 3 0 003-3V20a3 3 0 00-3-3h-8.531C63.689 10.099 57.427 5 50 5zm0 6a9.95 9.95 0 019.969 9.219 3 3 0 003 2.781H71v66H59V68a3 3 0 00-2.688-3A3 3 0 0056 65H44a3 3 0 00-3 3v21H29V23h8.031a3 3 0 003-2.781A9.95 9.95 0 0150 11zM34.687 25A3 3 0 0032 28v12a3 3 0 003 3h10a3 3 0 003-3V28a3 3 0 00-3-3H35a3 3 0 00-.313 0zM55 25a3 3 0 00-3 3v12a3 3 0 003 3h10a3 3 0 003-3V28a3 3 0 00-2.688-3A3 3 0 0065 25H55zm-17 6h4v6h-4v-6zm20 0h4v6h-4v-6zM34.687 45A3 3 0 0032 48v12a3 3 0 003 3h10a3 3 0 003-3V48a3 3 0 00-3-3H35a3 3 0 00-.313 0zM55 45a3 3 0 00-3 3v12a3 3 0 003 3h10a3 3 0 003-3V48a3 3 0 00-2.688-3A3 3 0 0065 45H55zm-17 6h4v6h-4v-6zm20 0h4v6h-4v-6zM47 71h6v18h-6V71z" font-weight="400" color="#fff" fill="#fff" overflow="visible" font-family="Sans"/></svg>