<svg xmlns="http://www.w3.org/2000/svg" viewBox="0 0 284.471 284.471"><path d="M238.811 72.941c3.647-21.882 0-37.382-11.853-51.059C214.193 7.294 189.575 0 159.487 0H71.046c-6.383 0-11.853 4.559-12.765 10.941L21.81 244.353c-.912 4.559 2.735 9.118 7.294 9.118H83.81l-3.647 23.706c-.912 3.647 2.735 7.294 6.382 7.294h45.588c5.471 0 10.029-3.647 10.941-9.118v-2.735l9.118-54.706.912-2.735c.912-5.471 5.471-9.118 10.941-9.118h7.294c44.676 0 79.324-18.235 89.353-70.206 4.559-21.882 1.824-40.118-9.118-52.882-3.646-4.559-8.205-7.295-12.763-10.03" fill="#26a6d1"/><path d="M238.811 72.941c3.647-21.882 0-37.382-11.853-51.059C214.193 7.294 189.575 0 159.487 0H71.046c-6.383 0-11.853 4.559-12.765 10.941L21.81 244.353c-.912 4.559 2.735 9.118 7.294 9.118H83.81l13.676-86.618v2.735c.912-6.382 6.382-10.941 12.765-10.941h25.529c51.059 0 91.176-20.971 102.118-80.235.001-1.824.913-3.647.913-5.471" fill="#324d5b"/><path d="M112.075 72.941c.912-3.647 2.735-6.382 6.382-8.206 1.824-.912 2.735-.912 4.559-.912h69.294c8.206 0 15.5.912 22.794 1.824 1.824 0 3.647.912 5.471.912 1.824 0 3.647.912 5.471 1.824.912 0 1.824.912 2.735.912 3.647.912 6.382 2.735 10.029 3.647 3.647-21.882 0-37.382-11.853-51.059C214.193 7.294 189.575 0 159.487 0H71.046c-6.383 0-11.853 4.559-12.765 10.941L21.81 244.353c-.912 4.559 2.735 9.118 7.294 9.118H83.81l13.676-86.618 14.589-93.912z" fill="#324d5b"/></svg>