<svg xmlns="http://www.w3.org/2000/svg" viewBox="0 0 483.688 483.688"><path d="M473.6 92.43c-8.7-10.6-21.9-16.5-35.6-16.5H140.7c-8.5 0-16.6 2.4-23.6 6.7l-15.2-53.1c-2.5-8.7-10.4-14.7-19.4-14.7H15.3c-8.4 0-15.3 6.8-15.3 15.3v1.6c0 8.4 6.8 15.3 15.3 15.3h57.8l29.5 104.3 40.6 143.9c-23.1 5.8-40.2 26.7-40.2 51.5 0 28.1 21.9 51.2 49.6 53-2.3 6.6-3.4 13.9-2.8 21.4 2 25.4 22.7 45.9 48.1 47.6 30.3 2.1 55.6-22 55.6-51.8 0-6-1-11.7-2.9-17.1h60.8c-2.5 7.1-3.5 15-2.6 23.1 2.8 24.6 23.1 44 47.9 45.8 30.3 2.1 55.7-21.9 55.7-51.8 0-28.9-24-52-52.8-52H156.5c-9.9 0-18.3-7.7-18.7-17.5-.4-10.4 7.9-18.9 18.2-18.9h242.3c20.6 0 38.6-14.1 43.6-34.1l40.4-162.6c3.5-14 .3-28.3-8.7-39.4zm-113.1 307.3c9.4 0 17.1 7.7 17.1 17.1s-7.7 17.1-17.1 17.1-17.1-7.7-17.1-17.1 7.6-17.1 17.1-17.1zm-158.9 0c9.4 0 17.1 7.7 17.1 17.1s-7.7 17.1-17.1 17.1c-9.4 0-17.1-7.7-17.1-17.1 0-9.4 7.6-17.1 17.1-17.1zm-62.8-248.6l-7.8-27.5c-1.2-4.2.5-7.3 1.7-8.8 1.1-1.5 3.7-4 8-4h32.6l8.9 40.4h-43.4v-.1zm9.8 34.8h41.2l8.2 37.4h-38.9l-10.5-37.4zm37.9 107.6c-4.5 0-8.5-3-9.7-7.4l-7.9-28h36.7l7.8 35.3h-26.9v.1zm87.1 0H249l-7.8-35.3h32.3v35.3h.1zm0-70.2h-40l-8.2-37.4h48.2v37.4zm0-72.2h-55.8l-8.9-40.4h64.7v40.4zm62.4 142.4h-27.5v-35.3h34.9l-7.4 35.3zm14.8-70.2h-42.3v-37.4h50.2l-7.9 37.4zm-42.3-72.2v-40.4h66l-8.5 40.4h-57.5zm99.7 134.8c-1.1 4.5-5.1 7.7-9.8 7.7h-26.8l7.5-35.3h36l-6.9 27.6zm15.5-62.6h-37.3l7.9-37.4H433l-9.3 37.4zm24.8-100.1l-6.9 27.8h-40l8.5-40.4h28.6c4.3 0 6.8 2.4 7.9 3.9 1.2 1.5 3 4.6 1.9 8.7z"/></svg>