<svg xmlns="http://www.w3.org/2000/svg" width="95" height="93.216" viewBox="0 0 95 93.216"><g transform="translate(0)"><g transform="translate(0 0)"><path d="M19.871,40.746c-.065.383-.47.624.3.611,2.194-.583,11.688,1.6,10.254-4.584-2.339-2.758-6.806-.663-10.254-.611-2.193.033-4.49-.784-6.032.917C14.031,41.28,18.1,40.327,19.871,40.746Z" transform="translate(-13.236 -7.434)" fill="#fff" fill-rule="evenodd"/><path d="M66.952,41.4c1.87.576,13.969-.16,9.952-5.2-1.773-2.223-6.816-.048-9.952,0-2.2.033-4.148-.719-5.73.611C59.778,41.351,66.4,40.131,66.952,41.4Z" transform="translate(-1.206 -7.474)" fill="#fff" fill-rule="evenodd"/><path d="M22.037,70.623c.052,1.07-1.061.963-1.508,1.528-.542.038-.636-.374-1.206-.306.254,1.778-3.691,4.061-2.413,7.029a.3.3,0,0,0-.6,0c-.49,6.586,4.784,11.362,9.952,12.226h1.508c6.531-.824,11.318-8.155,9.048-14.364C34.909,71.527,28.47,69.365,22.037,70.623Zm2.716,14.669c.162-.927-1-2.507-2.413-3.973-.738-5.63,5.284-7.587,9.651-4.89C34.842,80.7,30.686,89.065,24.752,85.292Z" transform="translate(-12.687 2.115)" fill="#fff" fill-rule="evenodd"/><path d="M56.026,48.269c0,.307-.245.364-.3.611.686-1.313,3.148-1.22,3.016-1.834-.067.238-.253.355-.6.306.622-.539.264-.946.6-1.222.749.993.363-.257,1.81.306,2.1-4.033,6.283-7.582,4.524-11.614.386.017.417.392.9.306,1.1-12.275-7.068-20.207-17.19-21.7H46.073c-5.956.39-10.068,4.449-13.571,8.252C22.152,38.874,41.3,56.237,56.026,48.269ZM33.707,29.626c1.123-6.123,7.124-11.7,13.571-11.614,2.415.031,3.287,1.4,6.032,1.834-.621,1.826,2.855.313,2.413,3.362.429.027.853.051.9-.306.422.108.026.537-.3.611.278.534.942.675,1.81.611-1.93,1.021,3.814,6.436,1.507,6.112,2.814,14.023-14.261,19.073-22.921,11C34.953,37.431,32.889,34.082,33.707,29.626Z" transform="translate(-9.278 -13.428)" fill="#fff" fill-rule="evenodd"/><path d="M96.96,23.881c-2.051,3.526-1.454,9.733-4.222,12.531,1.856,1-1.817,5.977-.3,7.641-.823.223-.607-.607-1.206-.611.713,1.221-1.891,4.256-.906,7.029-.353-.05-.254-.558-.3-.917-.288,1.392-1.224,3.237-.3,5.5-1.125-.323-.974.643-1.508.917-.789,6.655-3,11.761-3.317,18.032-23.02.716-44.522-.129-64.843.918a5.56,5.56,0,0,0-6.635,1.527v1.528c.465.651,1.088,1.138,1.508,1.834,3.067.974,6.151-.3,9.349-.306.969,0,2.058.592,3.016.611C36.512,80.3,47,78.406,55.642,79.2c10.027.921,20.684-.666,32.27,0,5.471-15.95,7.429-35.462,12.667-51.65,2.522-1.031,6.431,1.079,7.841-1.222V24.8C106.309,22.739,100.053,23.092,96.96,23.881Z" transform="translate(-13.42 -10.739)" fill="#fff" fill-rule="evenodd"/><path d="M65.46,70.33c-2.185-.246-4.378-.1-5.429.917-.064-.343-.336-.475-.6-.61-.107,1.1-1.541,1.07-2.714,1.832.319.527-3.7,3.731-2.112,6.418-.067-.238-.251-.354-.6-.3-.813,7.188,3.873,11.322,9.952,12.531h1.508C76.358,89.995,77.919,71.735,65.46,70.33ZM62.141,85.3c0-1.732-2.606-3.21-2.111-6.418.866-5.6,9.158-3.86,10.254-.61C71.685,82.429,67.13,88.57,62.141,85.3Z" transform="translate(-3.03 2.102)" fill="#0554f2" fill-rule="evenodd"/><path d="M85.008,45.541c-3.717-1.806-11.773-.346-18.094-.306-14.667.094-35.6-.1-52.476.917a3.53,3.53,0,0,0,0,2.751c4.388,1.556,10.625.388,13.571,1.528.777-.444,4.867-.888,5.429.611.476-.005.7-.8,1.81-.917-.044.362-.537.693,0,.917.62-.942,1.96-.02,2.714-1.222-.263.981.464.956.9,1.222,2.958-.928,7.189.327,9.952-1.222-.117.437-.362.516,0,.917,10.033.117,19.241-.917,26.54-.917,2.9,0,7.54,1.453,9.651-.611A7.139,7.139,0,0,0,85.008,45.541Z" transform="translate(-13.23 -4.894)" fill="#0554f2" fill-rule="evenodd"/><path d="M46.708,60.077c10.27-.05,20.245-.81,28.349-.611,2.775.069,4.657.312,6.032-.917a7.205,7.205,0,0,0,0-3.667c-6.311-1.546-15.436-.414-23.221-.306-13.765.191-28.961-.125-43.429.917a3.53,3.53,0,0,0,0,2.751c4.195,1.528,10.248.506,12.968,1.528,1.118-.811,2.355.735,3.619-.611.655.253.671,1.154,1.508,1.222.476,0,.7-.8,1.81-.917,0,.4-.528.28-.6.611a3.876,3.876,0,0,0,3.016-.918c.028.481-.04,1.059.6.918,2.391-.1,6.576.42,9.952-.918C47.283,59.641,46.54,59.4,46.708,60.077Z" transform="translate(-13.23 -2.314)" fill="#0554f2" fill-rule="evenodd"/><path d="M40.21,35.867c1.683,1.724,4.1,4.428,5.429,4.584,2.318.275,3-2.406,4.825-2.445-.594-.541,1.186-2.483,2.111-1.528.429-1.28,1.556-1.251.9-2.751.6,0,.383.834,1.206.611.77-.975,3.358-5.041.9-6.112-.643-.28-.691.84-1.205,0,.367-.034.714-.092.6-.611-2.825-1.249-4.284,2.044-6.333,3.362-.826-2.188.661-4.749-.6-7.335,1.194-1.466-.41-3.9-2.111-3.973-5.366-.224-1.034,11.95-2.413,13.447-1.5-3.023-8.162-7.219-7.54-2.139C36.075,31.68,39.205,34.836,40.21,35.867Z" transform="translate(-7.639 -11.722)" fill="#0554f2" fill-rule="evenodd"/></g></g></svg>