<svg xmlns:dc="http://purl.org/dc/elements/1.1/" xmlns:cc="http://creativecommons.org/ns#" xmlns:rdf="http://www.w3.org/1999/02/22-rdf-syntax-ns#" xmlns:svg="http://www.w3.org/2000/svg" xmlns="http://www.w3.org/2000/svg" xmlns:sodipodi="http://sodipodi.sourceforge.net/DTD/sodipodi-0.dtd" xmlns:inkscape="http://www.inkscape.org/namespaces/inkscape" version="1.1" x="0px" y="0px" viewBox="0 0 100 125"><g transform="translate(0,-952.36218)"><path style="text-indent:0;text-transform:none;direction:ltr;block-progression:tb;baseline-shift:baseline;color:#000000;enable-background:accumulate;" d="m 33,966.36215 c 0,0.18879 0.03872,0.37814 0.09375,0.5625 l 8.28125,28.53127 -20.3125,0.8437 -4.375,-7 c -0.356762,-0.5689 -1.016004,-0.9351 -1.6875,-0.9375 l -7,0 c -1.046941,-4e-4 -2,0.9719 -2,2 0,0.1655 0.020273,0.3364 0.0625,0.5 l 2.875,11.49998 -2.875,11.5001 c -0.042277,0.1637 -0.0625,0.3343 -0.0625,0.5 0,1.024 0.953257,2.0004 2,2 l 7,0 c 0.671496,0 1.330738,-0.3687 1.6875,-0.9375 l 4.375,-7 20.3125,0.8437 -8.28125,28.5313 c -0.346619,1.1832 0.67339,2.5543 1.90625,2.5625 l 9,0 c 0.671496,0 1.330738,-0.3686 1.6875,-0.9375 l 18.375,-29 18.84375,0.9375 c 0.03124,7e-4 0.06251,7e-4 0.09375,0 2.521493,0 5.068079,-0.9449 7.15625,-2.4688 2.088171,-1.5238 3.84375,-3.7594 3.84375,-6.5312 0,-2.77199 -1.755576,-5.00749 -3.84375,-6.53129 -2.088174,-1.5238 -4.634762,-2.46879 -7.15625,-2.46879 -0.03124,-7.1e-4 -0.06251,-7.1e-4 -0.09375,0 l -18.84375,0.9375 -18.375,-28.99997 C 45.330738,964.73076 44.671496,964.36452 44,964.36215 l -9,0 c -1.071777,0 -2,1.0966 -2,2 z m 4.65625,2 5.25,0 18.40625,29.06247 c 0.372908,0.5961 1.078799,0.9676 1.78125,0.9375 l 19.90625,-1 c 0.02661,0 0.06677,-4e-4 0.09375,0 1.410658,0.025 3.318555,0.697 4.71875,1.7188 1.426976,1.04128 2.1875,2.31368 2.1875,3.28118 0,0.9675 -0.760521,2.2399 -2.1875,3.2812 -1.400197,1.0218 -3.308097,1.6942 -4.71875,1.7189 l -0.09375,0 -19.90625,-1.0001 c -0.702451,-0.03 -1.408342,0.3414 -1.78125,0.9376 l -18.40625,29.0625 -5.25,0 8.25,-28.4375 c 0.339847,-1.154 -0.611339,-2.4986 -1.8125,-2.5625 l -24,-1 c -0.702451,-0.03 -1.408342,0.3414 -1.78125,0.9375 l -4.40625,7.0625 -3.34375,0 2.375,-9.5 c 0.08422,-0.3262 0.08422,-0.6739 0,-1 l -2.375,-9.50008 3.34375,0 4.40625,7.0625 c 0.372903,0.59608 1.078796,0.96768 1.78125,0.93758 l 24,-1.00008 c 1.201161,-0.064 2.152347,-1.4086 1.8125,-2.5625 z" fill="#fff" fill-opacity="1" stroke="none" marker="none" visibility="visible" display="inline" overflow="visible"/></g></svg>