<svg xmlns:dc="http://purl.org/dc/elements/1.1/" xmlns:cc="http://creativecommons.org/ns#" xmlns:rdf="http://www.w3.org/1999/02/22-rdf-syntax-ns#" xmlns:svg="http://www.w3.org/2000/svg" xmlns="http://www.w3.org/2000/svg" xmlns:sodipodi="http://sodipodi.sourceforge.net/DTD/sodipodi-0.dtd" xmlns:inkscape="http://www.inkscape.org/namespaces/inkscape" version="1.1" x="0px" y="0px" viewBox="0 0 100 125"><g transform="translate(0,-952.36218)"><path style="font-size:medium;font-style:normal;font-variant:normal;font-weight:normal;font-stretch:normal;text-indent:0;text-align:start;text-decoration:none;line-height:normal;letter-spacing:normal;word-spacing:normal;text-transform:none;direction:ltr;block-progression:tb;writing-mode:lr-tb;text-anchor:start;baseline-shift:baseline;opacity:1;color:#fff;fill:#fff;fill-opacity:1;stroke:none;stroke-width:6;marker:none;visibility:visible;display:inline;overflow:visible;enable-background:accumulate;font-family:Sans;-inkscape-font-specification:Sans" d="M 50 5 C 42.572507 5 36.310153 10.09885 34.53125 17 L 26 17 A 3.0003 3.0003 0 0 0 23 20 L 23 92 A 3.0003 3.0003 0 0 0 26 95 L 43.6875 95 L 56.21875 95 L 74 95 A 3.0003 3.0003 0 0 0 77 92 L 77 20 A 3.0003 3.0003 0 0 0 74 17 L 65.46875 17 C 63.689847 10.09885 57.427493 5 50 5 z M 50 11 C 55.302417 11 59.578266 15.04292 59.96875 20.21875 A 3.0003 3.0003 0 0 0 62.96875 23 L 71 23 L 71 89 L 59 89 L 59 68 A 3.0003 3.0003 0 0 0 56.3125 65 A 3.0003 3.0003 0 0 0 56 65 L 44 65 A 3.0003 3.0003 0 0 0 41 68 L 41 89 L 29 89 L 29 23 L 37.03125 23 A 3.0003 3.0003 0 0 0 40.03125 20.21875 C 40.421734 15.04292 44.697583 11 50 11 z M 34.6875 25 A 3.0003 3.0003 0 0 0 32 28 L 32 40 A 3.0003 3.0003 0 0 0 35 43 L 45 43 A 3.0003 3.0003 0 0 0 48 40 L 48 28 A 3.0003 3.0003 0 0 0 45 25 L 35 25 A 3.0003 3.0003 0 0 0 34.6875 25 z M 55 25 A 3.0003 3.0003 0 0 0 52 28 L 52 40 A 3.0003 3.0003 0 0 0 55 43 L 65 43 A 3.0003 3.0003 0 0 0 68 40 L 68 28 A 3.0003 3.0003 0 0 0 65.3125 25 A 3.0003 3.0003 0 0 0 65 25 L 55 25 z M 38 31 L 42 31 L 42 37 L 38 37 L 38 31 z M 58 31 L 62 31 L 62 37 L 58 37 L 58 31 z M 34.6875 45 A 3.0003 3.0003 0 0 0 32 48 L 32 60 A 3.0003 3.0003 0 0 0 35 63 L 45 63 A 3.0003 3.0003 0 0 0 48 60 L 48 48 A 3.0003 3.0003 0 0 0 45 45 L 35 45 A 3.0003 3.0003 0 0 0 34.6875 45 z M 55 45 A 3.0003 3.0003 0 0 0 52 48 L 52 60 A 3.0003 3.0003 0 0 0 55 63 L 65 63 A 3.0003 3.0003 0 0 0 68 60 L 68 48 A 3.0003 3.0003 0 0 0 65.3125 45 A 3.0003 3.0003 0 0 0 65 45 L 55 45 z M 38 51 L 42 51 L 42 57 L 38 57 L 38 51 z M 58 51 L 62 51 L 62 57 L 58 57 L 58 51 z M 47 71 L 53 71 L 53 89 L 47 89 L 47 71 z " transform="translate(0,952.36218)"/></g></svg>